<?xml version="1.0" standalone="no"?>
<!DOCTYPE svg PUBLIC "-//W3C//DTD SVG 20010904//EN"
 "http://www.w3.org/TR/2001/REC-SVG-20010904/DTD/svg10.dtd">
<svg version="1.0" xmlns="http://www.w3.org/2000/svg"
 width="260.000000pt" height="260.000000pt" viewBox="0 0 260.000000 260.000000"
 preserveAspectRatio="xMidYMid meet">
<metadata>
Created by potrace 1.14, written by Peter Selinger 2001-2017
</metadata>
<g transform="translate(0.000000,260.000000) scale(0.100000,-0.100000)"
fill="#000000" stroke="none">
<path d="M1100 2565 c-158 -27 -239 -52 -375 -117 -151 -72 -315 -202 -420
-333 -16 -20 -35 -42 -41 -49 -18 -20 -84 -126 -84 -136 0 -6 -4 -10 -10 -10
-5 0 -10 -9 -10 -19 0 -11 -4 -21 -9 -23 -26 -10 -111 -274 -130 -408 -10 -64
-8 -316 2 -355 2 -11 8 -40 12 -65 34 -209 176 -478 342 -645 86 -87 103 -101
195 -163 208 -141 429 -211 683 -217 226 -6 424 37 606 131 78 40 92 48 138
79 24 17 51 35 61 40 29 18 200 181 200 192 0 3 8 13 18 22 59 54 173 257 221
395 51 144 71 278 67 441 -2 77 -7 154 -10 170 -36 172 -66 265 -124 380 -30
62 -97 171 -112 185 -3 3 -18 22 -33 42 -90 121 -275 268 -437 347 -91 45
-239 95 -310 106 -24 4 -49 9 -54 13 -19 11 -312 9 -386 -3z m217 -777 c-3
-13 -9 -48 -12 -79 -4 -31 -11 -62 -16 -70 -6 -11 -50 -14 -221 -14 l-212 0
-7 -40 c-4 -22 -9 -51 -12 -65 -3 -14 -8 -44 -12 -67 l-7 -43 182 0 183 0 -7
-47 c-8 -64 -16 -105 -21 -120 -3 -10 -49 -13 -184 -13 -201 0 -183 7 -196
-80 -4 -25 -9 -52 -10 -60 -1 -8 -6 -33 -9 -55 l-7 -41 203 1 c112 0 209 -1
216 -3 8 -3 11 -14 7 -31 -7 -31 -10 -53 -20 -108 l-7 -43 -335 0 c-314 0
-334 1 -329 18 2 9 12 60 20 112 9 52 18 104 20 115 2 11 7 42 10 69 4 27 9
52 11 56 2 3 6 26 9 50 4 25 9 56 11 70 8 36 9 44 50 288 l38 222 335 0 334 0
-5 -22z m337 0 c-2 -13 -13 -77 -25 -143 -11 -66 -22 -131 -25 -145 -2 -14 -7
-45 -11 -70 l-6 -45 54 67 c30 36 108 132 174 212 l120 145 155 0 154 1 -35
-37 c-20 -21 -56 -60 -80 -87 -24 -27 -61 -67 -82 -90 -21 -22 -60 -65 -87
-96 -27 -30 -67 -75 -90 -99 -23 -24 -39 -49 -36 -55 2 -6 47 -112 99 -236 52
-124 101 -242 110 -262 l16 -38 -134 0 -134 0 -21 58 c-12 31 -32 84 -44 117
-13 33 -34 88 -47 123 -13 34 -27 62 -32 62 -19 0 -118 -107 -122 -132 -3 -16
-7 -40 -9 -54 -3 -14 -11 -59 -17 -100 l-13 -74 -118 0 c-118 0 -118 0 -114
23 8 36 25 130 30 162 9 61 18 121 22 140 3 11 18 99 35 195 16 96 41 239 54
317 14 78 25 147 25 152 0 7 42 11 119 11 119 0 120 0 115 -22z"/>
</g>
</svg>
